<svg width="200" height="50" viewBox="0 0 200 50" fill="none" xmlns="http://www.w3.org/2000/svg">
<g clip-path="url(#clip0_84_2942)">
<path d="M77.6931 0H65.2899L77.6597 49.4707H90.0628L77.6931 0Z" fill="#005581"/>
<path d="M12.4031 49.6127C26.1051 49.6127 37.2095 38.5083 37.2095 24.8063C37.2095 11.1044 26.1051 0 12.4031 0V12.4032C19.252 12.4032 24.8063 17.9574 24.8063 24.8063C24.8063 31.6552 19.252 37.2095 12.4031 37.2095V49.6127Z" fill="#005581"/>
<path d="M147.322 21.432C147.322 24.1423 146.316 26.6188 144.653 28.5022C147.635 30.5026 150.337 32.8872 152.684 35.5892C156.013 31.8139 158.034 26.8568 158.034 21.4278C158.034 9.59262 148.437 -0.00417328 136.602 -0.00417328V10.7118C142.519 10.7118 147.318 15.5102 147.318 21.4278L147.322 21.432Z" fill="#005581"/>
<path d="M185.204 34.1066C183.016 36.036 180.147 37.2095 177.006 37.2095C170.157 37.2095 164.603 31.6552 164.603 24.8063C164.603 17.9574 170.157 12.4032 177.006 12.4032C180.151 12.4032 183.02 13.5767 185.204 15.5019H200C196.321 6.41457 187.413 0 177.006 0C163.304 0 152.2 11.1044 152.2 24.8063C152.2 38.5083 163.304 49.6127 177.006 49.6127C187.417 49.6127 196.321 43.1981 200.004 34.1108H185.208L185.204 34.1066Z" fill="#009DDC"/>
<path d="M52.8867 0H40.4836L52.8867 49.6127H65.2899L52.8867 0Z" fill="#005581"/>
<path d="M114.903 49.6127H127.306L108.701 0H96.2979L114.903 49.6127Z" fill="#005581"/>
<path d="M90.2174 49.3454H77.8142L96.2978 0H108.701L90.2174 49.3454Z" fill="#009DDC"/>
<path d="M40.4836 49.6127H28.0804L40.4836 0H52.8868L40.4836 49.6127Z" fill="#009DDC"/>
<path d="M65.2899 49.6127H52.8868L65.2899 0H77.6931L65.2899 49.6127Z" fill="#009DDC"/>
<path d="M12.4032 0H0V49.6127H12.4032V0Z" fill="#009DDC"/>
<path d="M92.8358 49.6127C97.8639 39.2767 108.467 32.1522 120.732 32.1522C132.998 32.1522 143.601 39.2767 148.629 49.6127H163.797C158.042 31.3044 140.937 18.0243 120.732 18.0243C100.528 18.0243 83.4186 31.3044 77.668 49.6127H92.8358Z" fill="#009DDC"/>
<path d="M92.8358 49.6127C97.8639 39.2767 108.467 32.1522 120.733 32.1522C132.998 32.1522 143.601 39.2767 148.629 49.6127H155.395C149.978 35.7604 136.497 25.9506 120.728 25.9506C104.959 25.9506 91.4828 35.7604 86.0621 49.6127H92.8275H92.8358Z" fill="#005581"/>
<path d="M127.523 32.8955C132.125 33.9145 136.343 35.9608 139.926 38.7797V22.2881C136.059 20.4757 131.895 19.1978 127.523 18.5421V32.8997V32.8955Z" fill="#005581"/>
<path d="M127.523 26.577V32.8955C132.125 33.9145 136.343 35.9608 139.926 38.7797V31.2835C136.172 29.0201 131.987 27.3997 127.523 26.577Z" fill="#260859"/>
<path d="M136.606 0H124.203V49.6127H136.606V0Z" fill="#009DDC"/>
<path d="M110.234 37.293C113.462 35.9859 116.991 35.2592 120.691 35.2592C121.092 35.2592 121.493 35.2718 121.889 35.2885L120.716 32.1564H120.691C116.611 32.1564 112.714 32.9456 109.144 34.3781L110.234 37.2888V37.293Z" fill="#260859"/>
</g>
<defs>
<clipPath id="clip0_84_2942">
<rect width="200" height="49.6127" fill="white"/>
</clipPath>
</defs>
</svg>
