<svg width="202" height="50" viewBox="0 0 202 50" fill="none" xmlns="http://www.w3.org/2000/svg">
<g clip-path="url(#clip0_2312_2566)">
<path d="M93.6778 26.0516C96.173 24.1929 98.8157 22.6039 101.568 21.2889L103.296 16.6779L104.544 20.0034C108.198 18.5661 112.025 17.5925 115.961 17.1205L109.542 0H97.0412L85.8004 30.0177L78.2939 0H65.7928L59.5423 24.9979L53.296 0H40.7949L36.3905 17.622C33.242 7.41802 23.7377 0 12.5011 0H0V50H12.5011C19.3712 50 25.5964 47.2267 30.1146 42.7379L28.2981 50H40.7991L47.0497 25.0021L53.3002 50H65.8012L72.0518 24.9979L77.6743 47.4838C80.7974 39.0205 86.4158 31.4718 93.682 26.0516H93.6778ZM12.5011 37.4989V12.5011C19.4049 12.5011 25.0021 18.0983 25.0021 25.0021C25.0021 31.9059 19.4049 37.5032 12.5011 37.5032V37.4989Z" fill="#007DB3"/>
<path d="M178.378 37.4989C171.474 37.4989 165.877 31.9017 165.877 24.9979C165.877 18.0941 171.474 12.4968 178.378 12.4968C181.548 12.4968 184.439 13.677 186.639 15.62H201.551C197.846 6.46548 188.869 0 178.378 0C169.329 0 161.405 4.80907 157.018 12.0037C153.486 4.88915 146.148 0 137.668 0H125.166V18.3006C124.02 18.2121 122.861 18.1657 121.694 18.1657C101.328 18.1657 84.0934 31.5477 78.2939 50H93.5809C98.6471 39.5853 109.332 32.4033 121.694 32.4033C122.869 32.4033 124.028 32.4707 125.166 32.5929V41.6632L122.216 33.7984C122.035 33.7984 121.854 33.7899 121.668 33.7899C117.753 33.7899 113.985 34.536 110.512 35.9226L115.789 49.9958H137.663V36.7909C142.89 39.9056 147.13 44.4997 149.806 49.9958H165.093C164.339 47.5891 163.382 45.2752 162.257 43.0583C162.219 42.9824 162.177 42.9107 162.139 42.8349C161.89 42.3502 161.633 41.8697 161.367 41.3976C161.304 41.288 161.241 41.1827 161.182 41.0731C160.929 40.6347 160.672 40.2006 160.406 39.7707C160.335 39.6527 160.259 39.5347 160.183 39.4167C159.922 38.9994 159.652 38.5864 159.374 38.1775C159.294 38.0595 159.214 37.9457 159.133 37.8277C158.851 37.4189 158.56 37.0185 158.265 36.6181C158.185 36.5127 158.109 36.4031 158.029 36.2977C157.721 35.8889 157.405 35.4843 157.081 35.0881C157.009 34.9996 156.942 34.9111 156.866 34.8268C156.52 34.4011 156.162 33.988 155.8 33.575C155.749 33.5202 155.703 33.4612 155.652 33.4064C155.391 33.1156 155.129 32.829 154.864 32.5466C154.801 32.4791 154.737 32.4159 154.678 32.3485C154.586 32.2473 154.489 32.1462 154.396 32.045C154.396 32.045 154.392 32.0408 154.388 32.0366C154.211 31.8511 154.029 31.6699 153.848 31.4887C153.789 31.4297 153.73 31.3749 153.671 31.3159C153.115 30.7637 152.546 30.2284 151.96 29.7058C151.901 29.6552 151.846 29.6004 151.787 29.5499C151.568 29.356 151.349 29.1705 151.125 28.9809C150.931 28.8165 150.738 28.6521 150.544 28.492C150.346 28.3276 150.148 28.1674 149.945 28.0115C149.701 27.8176 149.456 27.6279 149.212 27.4425C149.043 27.3118 148.875 27.1812 148.702 27.0547C148.289 26.747 147.872 26.4478 147.45 26.157C144.432 24.0791 141.149 22.3594 137.663 21.0529V10.7983C143.627 10.7983 148.462 15.6326 148.462 21.5966C148.462 22.7261 148.285 23.8093 147.964 24.8293C148.542 25.2213 149.119 25.6259 149.684 26.0474C151.125 27.1221 152.499 28.2812 153.806 29.5161C158.767 34.1988 162.695 39.952 165.228 46.2573C169.047 48.626 173.552 49.9958 178.378 49.9958C188.869 49.9958 197.842 43.5303 201.551 34.3716H186.639C184.435 36.3146 181.543 37.4947 178.378 37.4947V37.4989Z" fill="#007DB3"/>
</g>
<defs>
<clipPath id="clip0_2312_2566">
<rect width="201.555" height="50" fill="white"/>
</clipPath>
</defs>
</svg>
